# xmcd
#
# Track frame offsets: 
#        183
#        20763
#        37278
#        55395
#        72430
#        90248
#        109190
#        124838
#        141515
#        158913
#        175628
#        194208
#        214200
#        233603
#        251230
#        265980
#        281158
#        297010
#        315298
#        335973
#
# Disc length: 4699 seconds
#
# Revision: 4
# Processed by: cddbd v1.5.2PL0 Copyright (c) Steve Scherf et al.
# Submitted via: ExactAudioCopy v0.99pb4
#
DISCID=43125914
DTITLE=Various Artist - One Hundred Dance Hits Of The Eighties Disc 1
DYEAR=1989
DGENRE=Pop
TTITLE0=Black Box - Ride On Time
TTITLE1=Technotronic - Pump Up The Jam
TTITLE2=Yazz And The Plastic Population - The Only Way Is Up
TTITLE3=Coldcut Featuring Yazz - Doctorin' The House
TTITLE4=Coldcut Featuring Lisa Stansfield - People Hold On
TTITLE5=Starlight - Numero Uno (Radio Edit)
TTITLE6=Kaoma - Lambada
TTITLE7=Sybil - Don't Make Me Over
TTITLE8=Alexander O'Neal - Fake '88
TTITLE9=Jellybean Featuring Elisa Fiorillo - Who Found Who
TTITLE10=Bill Withers - Lovely Day (Sunshine Mix)
TTITLE11=Luther Vandross - I Really Didn't Mean It
TTITLE12=Pasadenas - Tribute (Right On)
TTITLE13=Funky Worm - Hustle! (To The Music...) Radio 1
TTITLE14=Stock Aitken Waterman - Roadblock
TTITLE15=Mel And Kim - Respectable
TTITLE16=Four Tops - Loco In Acapulco
TTITLE17=Gregory Abbott - Shake You Down
TTITLE18=Jellybean With Steven Dante - The Real Thing
TTITLE19=Pointer Sisters - Automatic
EXTD=
EXTT0=
EXTT1=
EXTT2=
EXTT3=
EXTT4=
EXTT5=
EXTT6=
EXTT7=
EXTT8=
EXTT9=
EXTT10=
EXTT11=
EXTT12=
EXTT13=
EXTT14=
EXTT15=
EXTT16=
EXTT17=
EXTT18=
EXTT19=
PLAYORDER=
